<?xml version="1.0" encoding="UTF-8" standalone="no"?>
<!-- Generator: Adobe Illustrator 23.0.0, SVG Export Plug-In . SVG Version: 6.00 Build 0)  -->

<svg
   version="1.1"
   id="Badges"
   x="0px"
   y="0px"
   viewBox="0 0 128 40"
   style="enable-background:new 0 0 128 40;"
   xml:space="preserve"
   sodipodi:docname="app-store.svg"
   inkscape:version="1.2.2 (1:1.2.2+202212051551+b0a8486541)"
   xmlns:inkscape="http://www.inkscape.org/namespaces/inkscape"
   xmlns:sodipodi="http://sodipodi.sourceforge.net/DTD/sodipodi-0.dtd"
   xmlns="http://www.w3.org/2000/svg"
   xmlns:svg="http://www.w3.org/2000/svg"><defs
   id="defs1347" /><sodipodi:namedview
   id="namedview1345"
   pagecolor="#ffffff"
   bordercolor="#000000"
   borderopacity="0.25"
   inkscape:showpageshadow="2"
   inkscape:pageopacity="0.0"
   inkscape:pagecheckerboard="0"
   inkscape:deskcolor="#d1d1d1"
   showgrid="false"
   inkscape:zoom="3.3808543"
   inkscape:cx="43.184351"
   inkscape:cy="30.613564"
   inkscape:window-width="1366"
   inkscape:window-height="654"
   inkscape:window-x="0"
   inkscape:window-y="27"
   inkscape:window-maximized="1"
   inkscape:current-layer="g1342" />
<style
   type="text/css"
   id="style1292">
	.st0{fill:#FFFFFF;}
</style>
<g
   id="g1342">
	<path
   d="M124,40H4c-2.2,0-4-1.8-4-4V4c0-2.2,1.8-4,4-4h120c2.2,0,4,1.8,4,4v32C128,38.2,126.2,40,124,40z"
   id="path1294" />
	<path
   class="st0"
   d="M27,19.8c0-3.1,2.6-4.6,2.7-4.7c-1.5-2.1-3.7-2.4-4.5-2.5c-1.9-0.2-3.8,1.1-4.7,1.1c-1,0-2.5-1.1-4.1-1.1   c-2.1,0-4,1.2-5.1,3.1c-2.2,3.8-0.6,9.4,1.5,12.5c1.1,1.5,2.3,3.2,3.9,3.1c1.6-0.1,2.2-1,4.1-1c1.9,0,2.4,1,4.1,1s2.8-1.5,3.8-3   c1.2-1.7,1.7-3.4,1.7-3.5C30.3,24.7,27,23.5,27,19.8z"
   id="path1296" />
	<path
   class="st0"
   d="M23.9,10.6c0.8-1.1,1.4-2.5,1.3-4c-1.2,0.1-2.8,0.8-3.6,1.9c-0.8,0.9-1.5,2.4-1.3,3.8   C21.6,12.4,23,11.6,23.9,10.6z"
   id="path1298" />
	<path
   class="st0"
   d="m 49.8,25.1 h -2.2 l -1.2,-3.8 h -4.2 l -1.1,3.8 H 39 l 4.2,-12.9 h 2.6 z M 46,19.7 44.9,16.3 C 44.8,16 44.6,15.1 44.2,13.9 v 0 c -0.1,0.5 -0.3,1.4 -0.6,2.4 l -1.1,3.4 z"
   id="path1300" />
	<path
   class="st0"
   d="m 60.5,20.4 c 0,1.6 -0.4,2.8 -1.3,3.8 -0.8,0.8 -1.7,1.2 -2.9,1.2 -1.2,0 -2.1,-0.4 -2.6,-1.3 v 0 4.9 H 51.6 V 19 c 0,-1 0,-2 -0.1,-3.1 h 1.8 l 0.1,1.5 v 0 c 0.7,-1.1 1.7,-1.7 3.1,-1.7 1.1,0 2,0.4 2.7,1.3 0.9,0.8 1.3,1.9 1.3,3.4 z m -2.1,0 c 0,-0.9 -0.2,-1.7 -0.6,-2.2 -0.4,-0.6 -1,-0.9 -1.8,-0.9 -0.5,0 -1,0.2 -1.4,0.5 -0.4,0.3 -0.7,0.8 -0.8,1.3 -0.1,0.3 -0.1,0.5 -0.1,0.6 v 1.6 c 0,0.7 0.2,1.2 0.6,1.7 0.4,0.5 1,0.7 1.6,0.7 0.8,0 1.4,-0.3 1.8,-0.9 0.5,-0.6 0.7,-1.4 0.7,-2.4 z"
   id="path1302" />
	<path
   class="st0"
   d="m 71.2,20.4 c 0,1.6 -0.4,2.8 -1.3,3.8 -0.8,0.8 -1.7,1.2 -2.9,1.2 -1.2,0 -2.1,-0.4 -2.6,-1.3 v 0 4.9 H 62.3 V 19 c 0,-1 0,-2 -0.1,-3.1 H 64 l 0.1,1.5 v 0 c 0.7,-1.1 1.7,-1.7 3.1,-1.7 1.1,0 2,0.4 2.7,1.3 0.9,0.8 1.3,1.9 1.3,3.4 z m -2.1,0 c 0,-0.9 -0.2,-1.7 -0.6,-2.2 -0.4,-0.6 -1,-0.9 -1.8,-0.9 -0.5,0 -1,0.2 -1.4,0.5 -0.4,0.3 -0.7,0.8 -0.8,1.3 -0.1,0.3 -0.1,0.5 -0.1,0.6 v 1.6 c 0,0.7 0.2,1.2 0.6,1.7 0.4,0.5 1,0.7 1.6,0.7 0.8,0 1.4,-0.3 1.8,-0.9 0.5,-0.6 0.7,-1.4 0.7,-2.4 z"
   id="path1304" />
	<path
   class="st0"
   d="m 83.2,21.5 c 0,1.1 -0.4,2 -1.1,2.7 -0.8,0.8 -2,1.1 -3.5,1.1 -1.4,0 -2.5,-0.3 -3.3,-0.8 l 0.5,-1.7 c 0.9,0.5 1.9,0.8 3,0.8 0.8,0 1.4,-0.2 1.8,-0.5 0.4,-0.4 0.6,-0.8 0.6,-1.4 0,-0.5 -0.2,-1 -0.5,-1.3 -0.4,-0.4 -1,-0.7 -1.8,-1 -2.3,-0.8 -3.4,-2.1 -3.4,-3.7 0,-1.1 0.4,-1.9 1.2,-2.6 0.8,-0.7 1.8,-1 3.2,-1 1.2,0 2.1,0.2 2.9,0.6 l -0.5,1.7 c -0.7,-0.4 -1.5,-0.6 -2.5,-0.6 -0.7,0 -1.3,0.2 -1.7,0.5 -0.3,0.3 -0.5,0.7 -0.5,1.2 0,0.5 0.2,0.9 0.6,1.3 0.3,0.3 1,0.6 1.9,1 1.1,0.4 1.9,1 2.5,1.6 0.3,0.5 0.6,1.2 0.6,2.1 z"
   id="path1306" />
	<path
   class="st0"
   d="m 90,17.4 h -2.3 v 4.5 c 0,1.1 0.4,1.7 1.2,1.7 0.4,0 0.7,0 0.9,-0.1 l 0.1,1.6 c -0.4,0.2 -0.9,0.2 -1.6,0.2 -0.8,0 -1.5,-0.2 -1.9,-0.7 -0.5,-0.5 -0.7,-1.3 -0.7,-2.5 v -4.7 h -1.4 v -1.6 h 1.4 v -1.7 l 2,-0.6 v 2.3 H 90 Z"
   id="path1308" />
	<path
   class="st0"
   d="m 100.3,20.4 c 0,1.4 -0.4,2.6 -1.2,3.5 -0.9,0.9 -2,1.4 -3.4,1.4 -1.4,0 -2.5,-0.5 -3.3,-1.4 -0.8,-0.9 -1.2,-2 -1.2,-3.4 0,-1.4 0.4,-2.6 1.3,-3.5 0.8,-0.9 2,-1.4 3.4,-1.4 1.4,0 2.5,0.5 3.3,1.4 0.7,0.9 1.1,2 1.1,3.4 z m -2.2,0.1 c 0,-0.9 -0.2,-1.6 -0.6,-2.2 -0.4,-0.7 -1.1,-1.1 -1.9,-1.1 -0.8,0 -1.5,0.4 -1.9,1.1 -0.4,0.6 -0.6,1.4 -0.6,2.2 0,0.9 0.2,1.6 0.6,2.2 0.4,0.7 1.1,1.1 1.9,1.1 0.8,0 1.4,-0.4 1.9,-1.1 0.4,-0.6 0.6,-1.4 0.6,-2.2 z"
   id="path1310" />
	<path
   class="st0"
   d="m 107,17.6 c -0.2,0 -0.4,-0.1 -0.7,-0.1 -0.7,0 -1.3,0.3 -1.7,0.8 -0.3,0.5 -0.5,1.1 -0.5,1.8 V 25 H 102 v -6.4 c 0,-1.1 0,-2 -0.1,-2.9 h 1.8 l 0.1,1.8 h 0.1 c 0.2,-0.6 0.6,-1.1 1,-1.5 0.5,-0.3 1,-0.5 1.5,-0.5 0.2,0 0.4,0 0.5,0 z"
   id="path1312" />
	<path
   class="st0"
   d="m 116.2,20 c 0,0.4 0,0.7 -0.1,0.9 h -6.2 c 0,0.9 0.3,1.6 0.9,2.1 0.5,0.4 1.2,0.7 2,0.7 0.9,0 1.8,-0.1 2.5,-0.4 l 0.3,1.4 c -0.9,0.4 -1.9,0.6 -3.1,0.6 -1.4,0 -2.6,-0.4 -3.4,-1.3 -0.8,-0.8 -1.2,-2 -1.2,-3.4 0,-1.4 0.4,-2.6 1.1,-3.5 0.8,-1 1.9,-1.5 3.3,-1.5 1.3,0 2.4,0.5 3,1.5 0.7,0.8 0.9,1.8 0.9,2.9 z m -1.9,-0.5 c 0,-0.6 -0.1,-1.1 -0.4,-1.6 -0.4,-0.6 -0.9,-0.9 -1.6,-0.9 -0.7,0 -1.2,0.3 -1.6,0.8 -0.3,0.4 -0.5,1 -0.6,1.6 h 4.2 z"
   id="path1314" />
	
	
	
	
	
	
	
	
	
	
	
	
	
</g>
</svg>
