<?xml version="1.0" encoding="UTF-8" standalone="no"?>
<!-- Generator: Adobe Illustrator 23.0.0, SVG Export Plug-In . SVG Version: 6.00 Build 0)  -->

<svg
   version="1.1"
   id="Badges"
   x="0px"
   y="0px"
   viewBox="0 0 128 40"
   style="enable-background:new 0 0 128 40;"
   xml:space="preserve"
   sodipodi:docname="google-play.svg"
   inkscape:version="1.2.2 (1:1.2.2+202212051551+b0a8486541)"
   xmlns:inkscape="http://www.inkscape.org/namespaces/inkscape"
   xmlns:sodipodi="http://sodipodi.sourceforge.net/DTD/sodipodi-0.dtd"
   xmlns="http://www.w3.org/2000/svg"
   xmlns:svg="http://www.w3.org/2000/svg"><defs
   id="defs1666" /><sodipodi:namedview
   id="namedview1664"
   pagecolor="#ffffff"
   bordercolor="#000000"
   borderopacity="0.25"
   inkscape:showpageshadow="2"
   inkscape:pageopacity="0.0"
   inkscape:pagecheckerboard="0"
   inkscape:deskcolor="#d1d1d1"
   showgrid="false"
   inkscape:zoom="3.3808543"
   inkscape:cx="59.452429"
   inkscape:cy="25.289466"
   inkscape:window-width="1366"
   inkscape:window-height="654"
   inkscape:window-x="0"
   inkscape:window-y="27"
   inkscape:window-maximized="1"
   inkscape:current-layer="g1661" />
<style
   type="text/css"
   id="style1575">
	.st0{fill-rule:evenodd;clip-rule:evenodd;fill:url(#SVGID_1_);}
	.st1{fill-rule:evenodd;clip-rule:evenodd;fill:url(#SVGID_2_);}
	.st2{fill-rule:evenodd;clip-rule:evenodd;fill:url(#SVGID_3_);}
	.st3{fill-rule:evenodd;clip-rule:evenodd;fill:url(#SVGID_4_);}
	.st4{fill-rule:evenodd;clip-rule:evenodd;fill:#FFFFFF;}
	.st5{fill:#FFFFFF;}
</style>
<g
   id="g1661">
	<path
   d="M124,40H4c-2.2,0-4-1.8-4-4V4c0-2.2,1.8-4,4-4h120c2.2,0,4,1.8,4,4v32C128,38.2,126.2,40,124,40z"
   id="path1577" />
	
		<linearGradient
   id="SVGID_1_"
   gradientUnits="userSpaceOnUse"
   x1="16.2579"
   y1="35.4241"
   x2="21.8561"
   y2="12.4332"
   gradientTransform="matrix(1 0 0 -1 0 42)">
		<stop
   offset="0"
   style="stop-color:#006884"
   id="stop1579" />
		<stop
   offset="1"
   style="stop-color:#8AD1D0"
   id="stop1581" />
	</linearGradient>
	<path
   class="st0"
   d="M9.8,19.6V9.1c0-0.6,0.5-1.1,1-1.1s0.7,0.1,1,0.3l19.3,10.6c0.4,0.2,0.6,0.5,0.6,0.8s-0.2,0.6-0.6,0.8   L11.8,31.1c-0.2,0.1-0.5,0.3-1,0.3s-1-0.5-1-1.1V19.6z"
   id="path1584" />
	
		<linearGradient
   id="SVGID_2_"
   gradientUnits="userSpaceOnUse"
   x1="9.4263"
   y1="32.1296"
   x2="24.6823"
   y2="23.8821"
   gradientTransform="matrix(1 0 0 -1 0 42)">
		<stop
   offset="0"
   style="stop-color:#24BBB6"
   id="stop1586" />
		<stop
   offset="1"
   style="stop-color:#DBE692"
   id="stop1588" />
	</linearGradient>
	<path
   class="st1"
   d="M22.3,19.7L10.6,8c0.1,0,0.1,0,0.2,0c0.5,0,0.7,0.1,1,0.3L26,16.1L22.3,19.7z"
   id="path1591" />
	
		<linearGradient
   id="SVGID_3_"
   gradientUnits="userSpaceOnUse"
   x1="27"
   y1="18.3799"
   x2="27"
   y2="26.3283"
   gradientTransform="matrix(1 0 0 -1 0 42)">
		<stop
   offset="0"
   style="stop-color:#FCC072"
   id="stop1593" />
		<stop
   offset="1"
   style="stop-color:#F58A5B"
   id="stop1595" />
	</linearGradient>
	<path
   class="st2"
   d="M25.9,23.2l-3.6-3.6l3.7-3.7l5.1,2.8c0.4,0.2,0.6,0.5,0.6,0.8s-0.2,0.6-0.6,0.8L25.9,23.2z"
   id="path1598" />
	
		<linearGradient
   id="SVGID_4_"
   gradientUnits="userSpaceOnUse"
   x1="12.3651"
   y1="8.76"
   x2="24.4168"
   y2="21.0252"
   gradientTransform="matrix(1 0 0 -1 0 42)">
		<stop
   offset="0"
   style="stop-color:#712B8F"
   id="stop1600" />
		<stop
   offset="1"
   style="stop-color:#EA1D27"
   id="stop1602" />
	</linearGradient>
	<path
   class="st3"
   d="M10.7,31.2L10.7,31.2l11.6-11.6l3.6,3.6l-14.1,7.7C11.5,31.1,11.3,31.2,10.7,31.2   C10.8,31.2,10.8,31.2,10.7,31.2z"
   id="path1605" />
	<path
   class="st4"
   d="M 71.1,27.9 C 70.6,27.5 70.2,26.8 70,26.4 l 1.6,-0.7 c 0.1,0.2 0.3,0.5 0.5,0.8 0.4,0.4 1,0.8 1.6,0.8 0.6,0 1.3,-0.3 1.7,-0.8 0.3,-0.5 0.5,-1 0.5,-1.7 v -0.6 c -1.2,1.5 -3.7,1.3 -5.1,-0.3 -1.5,-1.6 -1.5,-4.3 0,-5.9 1.5,-1.5 3.7,-1.7 5,-0.3 v 0 -0.7 h 1.7 v 7.5 c 0,1.9 -0.7,3 -1.6,3.7 -0.6,0.5 -1.5,0.7 -2.3,0.7 -0.9,-0.1 -1.8,-0.4 -2.5,-1 z m 41.9,0.4 v 0 l 1.7,-4 -3,-6.9 h 1.7 l 2.1,4.9 2.1,-4.9 h 1.7 l -4.6,10.9 z m -8.1,-3.8 v 0 c -0.5,-0.5 -0.7,-1.2 -0.7,-1.9 0,-0.6 0.2,-1.2 0.6,-1.6 0.7,-0.7 1.7,-1 2.8,-1 0.7,0 1.3,0.1 1.8,0.4 0,-1.2 -1,-1.7 -1.8,-1.7 -0.7,0 -1.4,0.4 -1.7,1.1 l -1.5,-0.6 c 0.3,-0.7 1.1,-2 3.1,-2 1,0 2,0.3 2.6,1 0.6,0.7 0.8,1.5 0.8,2.6 V 25 h -1.7 v -0.7 c -0.2,0.3 -0.6,0.5 -0.9,0.7 -0.4,0.2 -0.9,0.3 -1.4,0.3 -0.6,-0.1 -1.5,-0.3 -2,-0.8 z M 51.6,20.9 v 0 c 0,-2 1.5,-4.2 4.2,-4.2 2.6,0 4.2,2.2 4.2,4.2 0,2 -1.5,4.2 -4.2,4.2 -2.7,0 -4.2,-2.2 -4.2,-4.2 z m 9,0 v 0 c 0,-2 1.5,-4.2 4.2,-4.2 2.6,0 4.2,2.2 4.2,4.2 0,2 -1.5,4.2 -4.2,4.2 -2.6,0 -4.2,-2.2 -4.2,-4.2 z m -20.3,2.2 v 0 c -2.5,-2.5 -2.4,-6.6 0.1,-9.2 1.3,-1.3 2.9,-1.9 4.6,-1.9 1.6,0 3.2,0.6 4.4,1.8 l -1.2,1.3 c -1.8,-1.8 -4.7,-1.7 -6.4,0.1 -1.8,1.9 -1.8,4.8 0,6.7 1.8,1.9 4.8,2 6.6,0.1 0.6,-0.6 0.8,-1.4 0.9,-2.2 H 45.1 V 18 H 51 c 0.1,0.4 0.1,0.9 0.1,1.4 0,1.5 -0.6,3 -1.6,4 -1.1,1.1 -2.7,1.7 -4.3,1.7 -1.8,-0.1 -3.6,-0.7 -4.9,-2 z m 42.3,0.7 v 0 c -1.5,-1.6 -1.5,-4.3 0,-6 1.5,-1.6 4,-1.6 5.4,0 0.5,0.5 0.8,1.2 1.1,1.9 L 83.6,22 c 0.3,0.7 1,1.3 2,1.3 0.9,0 1.5,-0.3 2.1,-1.2 l 1.5,1 v 0 c -0.2,0.2 -0.4,0.4 -0.5,0.6 -1.7,1.7 -4.6,1.7 -6.1,0.1 z M 93,25 v 0 -11.1 h 3.6 c 2.1,0 3.8,1.5 3.8,3.3 0,1.8 -1.5,3.3 -3.4,3.3 h -2.2 v 4.4 z m 8.4,0 v 0 -11.1 h 1.7 V 25 Z M 78.8,24.8 v 0 -12.4 h 1.8 v 12.4 z m 30.5,-3.1 v 0 c -0.4,-0.3 -1,-0.4 -1.6,-0.4 -1.2,0 -1.9,0.6 -1.9,1.3 0,0.7 0.7,1.1 1.4,1.1 1,0 2.1,-0.8 2.1,-2 z M 58.1,20.9 v 0 c 0,-1.2 -0.8,-2.5 -2.3,-2.5 -1.5,0 -2.3,1.3 -2.3,2.5 0,1.2 0.8,2.5 2.3,2.5 1.4,0 2.3,-1.3 2.3,-2.5 z m 9,0 v 0 c 0,-1.2 -0.8,-2.5 -2.3,-2.5 -1.5,0 -2.3,1.3 -2.3,2.5 0,1.2 0.8,2.5 2.3,2.5 1.5,0 2.3,-1.3 2.3,-2.5 z m 8.9,0.7 v 0 c 0,-0.1 0,-0.2 0.1,-0.3 v 0 c 0,-0.1 0,-0.3 0,-0.4 0,-0.1 0,-0.3 0,-0.4 V 20.4 C 76.1,20.3 76,20.1 76,20 c -0.3,-1 -1.2,-1.7 -2.1,-1.7 -1.2,0 -2.2,1.2 -2.2,2.5 0,1.4 1,2.5 2.3,2.5 0.8,0.1 1.6,-0.6 2,-1.7 z m 7.3,-0.9 v 0 L 87,19.1 c -0.4,-0.7 -1,-0.9 -1.5,-0.9 -1.5,0.1 -2.4,1.7 -2.2,2.5 z m 15.3,-3.4 v 0 c 0,-1 -0.8,-1.7 -1.9,-1.7 h -2 v 3.5 h 2.1 c 1,0 1.8,-0.8 1.8,-1.8 z"
   id="path1607" />
	<polygon
   class="st4"
   points="114.3,32.3 114.3,32.3 114.2,32.3 114.2,32.3 114.2,32.2 114.2,32.2 114.3,32.2 114.3,32.2    114.2,32.2 114.2,32.2 114.2,32.3 114.2,32.3  "
   id="polygon1609" />
	<path
   class="st4"
   d="M114.3,32.3L114.3,32.3C114.3,32.2,114.3,32.2,114.3,32.3L114.3,32.3C114.3,32.2,114.3,32.2,114.3,32.3   L114.3,32.3L114.3,32.3L114.3,32.3L114.3,32.3L114.3,32.3L114.3,32.3L114.3,32.3L114.3,32.3z M114.3,32.2L114.3,32.2L114.3,32.2   L114.3,32.2L114.3,32.2L114.3,32.2L114.3,32.2L114.3,32.2z"
   id="path1611" />
	<polygon
   class="st4"
   points="114.3,32.3 114.3,32.3 114.3,32.2 114.3,32.2 114.3,32.2 114.3,32.2 114.3,32.2 114.3,32.2    114.3,32.2 114.3,32.2 114.3,32.3  "
   id="polygon1613" />
	<path
   class="st4"
   d="M114.3,32.3L114.3,32.3L114.3,32.3L114.3,32.3L114.3,32.3L114.3,32.3L114.3,32.3L114.3,32.3L114.3,32.3   L114.3,32.3z M114.3,32.2L114.3,32.2L114.3,32.2L114.3,32.2L114.3,32.2L114.3,32.2L114.3,32.2z"
   id="path1615" />
	<polygon
   class="st4"
   points="114.3,32.2 114.3,32.2 114.3,32.2 114.3,32.2 114.3,32.3 114.3,32.3 114.3,32.2  "
   id="polygon1617" />
	<polygon
   class="st4"
   points="114.3,32.3 114.3,32.3 114.3,32.2 114.3,32.2 114.3,32.2 114.3,32.2 114.3,32.2 114.3,32.2    114.3,32.2 114.3,32.2 114.3,32.3  "
   id="polygon1619" />
	<path
   class="st4"
   d="M114.3,32.3L114.3,32.3C114.3,32.2,114.3,32.2,114.3,32.3L114.3,32.3L114.3,32.3L114.3,32.3L114.3,32.3   L114.3,32.3z M114.3,32.3L114.3,32.3L114.3,32.3L114.3,32.3L114.3,32.3L114.3,32.3C114.3,32.2,114.3,32.2,114.3,32.3L114.3,32.3z"
   id="path1621" />
	<path
   class="st4"
   d="M114.4,32.3L114.4,32.3C114.4,32.2,114.4,32.2,114.4,32.3C114.4,32.2,114.4,32.2,114.4,32.3L114.4,32.3   C114.4,32.2,114.4,32.2,114.4,32.3L114.4,32.3L114.4,32.3L114.4,32.3L114.4,32.3L114.4,32.3z M114.4,32.2L114.4,32.2L114.4,32.2   L114.4,32.2L114.4,32.2L114.4,32.2L114.4,32.2L114.4,32.2L114.4,32.2z M114.4,32.3L114.4,32.3L114.4,32.3L114.4,32.3L114.4,32.3   L114.4,32.3C114.4,32.2,114.4,32.2,114.4,32.3L114.4,32.3z"
   id="path1623" />
	<polygon
   class="st4"
   points="114.4,32.2 114.4,32.2 114.4,32.2 114.4,32.2 114.4,32.2 114.4,32.2 114.4,32.2 114.4,32.2    114.4,32.3 114.4,32.3  "
   id="polygon1625" />
	<polygon
   class="st4"
   points="114.4,32.3 114.4,32.3 114.4,32.2 114.4,32.2 114.4,32.3  "
   id="polygon1627" />
	<path
   class="st4"
   d="M114.4,32.3L114.4,32.3C114.4,32.2,114.4,32.2,114.4,32.3C114.4,32.2,114.4,32.2,114.4,32.3L114.4,32.3   L114.4,32.3L114.4,32.3L114.4,32.3z M114.4,32.2L114.4,32.2C114.4,32.3,114.4,32.3,114.4,32.2C114.4,32.3,114.4,32.3,114.4,32.2   L114.4,32.2L114.4,32.2L114.4,32.2L114.4,32.2z"
   id="path1629" />
	<path
   class="st4"
   d="M114.4,32.3L114.4,32.3L114.4,32.3L114.4,32.3L114.4,32.3L114.4,32.3L114.4,32.3L114.4,32.3L114.4,32.3   C114.4,32.2,114.4,32.2,114.4,32.3C114.4,32.2,114.4,32.2,114.4,32.3L114.4,32.3C114.4,32.2,114.4,32.2,114.4,32.3   C114.4,32.2,114.4,32.2,114.4,32.3L114.4,32.3L114.4,32.3L114.4,32.3L114.4,32.3z"
   id="path1631" />
	<path
   class="st4"
   d="M114.5,32.3L114.5,32.3C114.5,32.2,114.5,32.2,114.5,32.3C114.4,32.2,114.4,32.2,114.5,32.3L114.5,32.3   C114.4,32.3,114.4,32.3,114.5,32.3L114.5,32.3L114.5,32.3z M114.5,32.2L114.5,32.2C114.5,32.3,114.5,32.3,114.5,32.2   C114.5,32.3,114.4,32.3,114.5,32.2L114.5,32.2C114.4,32.2,114.5,32.2,114.5,32.2L114.5,32.2L114.5,32.2z"
   id="path1633" />
	<polygon
   class="st4"
   points="114.5,32.3 114.5,32.2 114.5,32.2 114.5,32.2 114.5,32.2 114.5,32.2 114.5,32.3 114.5,32.3    114.5,32.2 114.5,32.2 114.5,32.3 114.5,32.3 114.5,32.2 114.5,32.2  "
   id="polygon1635" />
	<path
   class="st4"
   d="M114.5,32.3L114.5,32.3L114.5,32.3L114.5,32.3L114.5,32.3L114.5,32.3L114.5,32.3L114.5,32.3L114.5,32.3   L114.5,32.3z M114.5,32.2L114.5,32.2L114.5,32.2L114.5,32.2L114.5,32.2L114.5,32.2L114.5,32.2z"
   id="path1637" />
	<path
   class="st4"
   d="M114.5,32.3C114.5,32.2,114.5,32.2,114.5,32.3C114.5,32.2,114.5,32.2,114.5,32.3   C114.5,32.2,114.5,32.2,114.5,32.3C114.5,32.2,114.5,32.2,114.5,32.3L114.5,32.3C114.5,32.2,114.5,32.2,114.5,32.3   C114.5,32.2,114.5,32.2,114.5,32.3C114.5,32.2,114.5,32.2,114.5,32.3C114.5,32.2,114.5,32.2,114.5,32.3L114.5,32.3L114.5,32.3   L114.5,32.3L114.5,32.3L114.5,32.3z"
   id="path1639" />
	<polygon
   class="st4"
   points="114.6,32.2 114.5,32.2 114.5,32.2 114.6,32.2 114.6,32.3 114.6,32.3 114.6,32.2  "
   id="polygon1641" />
	<polygon
   class="st4"
   points="114.6,32.3 114.6,32.3 114.6,32.2 114.6,32.2 114.6,32.2 114.6,32.2 114.6,32.2 114.6,32.2    114.6,32.2 114.6,32.2 114.6,32.3  "
   id="polygon1643" />
	<path
   class="st4"
   d="M114.6,32.3L114.6,32.3C114.6,32.2,114.6,32.2,114.6,32.3L114.6,32.3C114.6,32.2,114.6,32.2,114.6,32.3   L114.6,32.3L114.6,32.3L114.6,32.3L114.6,32.3L114.6,32.3L114.6,32.3L114.6,32.3L114.6,32.3z M114.6,32.2L114.6,32.2L114.6,32.2   L114.6,32.2L114.6,32.2L114.6,32.2L114.6,32.2L114.6,32.2z"
   id="path1645" />
	
	
	
	
	
	
	
</g>
</svg>
