<?xml version="1.0" encoding="utf-8"?>
<!-- Generator: Adobe Illustrator 25.2.3, SVG Export Plug-In . SVG Version: 6.00 Build 0)  -->
<svg version="1.1" id="Icon" xmlns="http://www.w3.org/2000/svg" xmlns:xlink="http://www.w3.org/1999/xlink" x="0px" y="0px"
	 viewBox="0 0 36.8 34.5" style="enable-background:new 0 0 36.8 34.5;" xml:space="preserve">
<style type="text/css">
	.st0{fill-rule:evenodd;clip-rule:evenodd;fill:#2163E8;}
</style>
<path class="st0" d="M0,0v34.5h26.7V32h-24V2.5h31.5V32h-2.2h-1.3V11.8h-2.7l-3,4.6l-3-4.6H19v10.9h2.5v-7.1l3.2,4.6h0.1l3.3-4.6V32
	v2.5h2.5h1.3h4.9V0H0L0,0z M7.9,13.3c-0.5,0.5-0.9,1.1-1.2,1.8c-0.3,0.7-0.4,1.4-0.4,2.2v0c0,0.8,0.1,1.5,0.4,2.2
	c0.3,0.7,0.7,1.3,1.2,1.8c0.5,0.5,1.2,0.9,1.9,1.2c0.7,0.3,1.5,0.4,2.4,0.4c0.6,0,1.1,0,1.5-0.1c0.5-0.1,0.9-0.2,1.3-0.4
	c0.4-0.2,0.7-0.4,1.1-0.6c0.3-0.2,0.6-0.5,0.9-0.8l-1.6-1.5c-0.5,0.4-0.9,0.7-1.4,0.9c-0.5,0.2-1,0.3-1.7,0.3c-0.5,0-1-0.1-1.4-0.3
	c-0.4-0.2-0.8-0.4-1.1-0.7c-0.3-0.3-0.5-0.7-0.7-1.1c-0.2-0.4-0.2-0.9-0.2-1.3v0c0-0.5,0.1-0.9,0.2-1.3c0.2-0.4,0.4-0.8,0.7-1.1
	c0.3-0.3,0.7-0.6,1.1-0.7c0.4-0.2,0.9-0.3,1.3-0.3c0.6,0,1.1,0.1,1.6,0.3c0.5,0.2,0.9,0.5,1.4,0.9l1.6-1.8c-0.3-0.2-0.6-0.5-0.9-0.7
	c-0.3-0.2-0.6-0.4-1-0.5c-0.4-0.1-0.8-0.3-1.2-0.3c-0.4-0.1-0.9-0.1-1.5-0.1c-0.9,0-1.7,0.1-2.5,0.4C9.1,12.4,8.5,12.8,7.9,13.3
	L7.9,13.3z"/>
</svg>
